<?xml version="1.0" encoding="utf-8"?>
<!-- Generator: Adobe Illustrator 18.0.0, SVG Export Plug-In . SVG Version: 6.00 Build 0)  -->
<!DOCTYPE svg PUBLIC "-//W3C//DTD SVG 1.1//EN" "http://www.w3.org/Graphics/SVG/1.1/DTD/svg11.dtd">
<svg version="1.1" id="a" xmlns="http://www.w3.org/2000/svg" xmlns:xlink="http://www.w3.org/1999/xlink" x="0px" y="0px"
	 viewBox="0 0 100 100" enable-background="new 0 0 100 100" xml:space="preserve">
<g>
	<g>
		<g>
			<g>
				<path fill="#FFFFFF" d="M59.7,87.8H15.9c-1.9,0-3.1-1.2-3.1-3.1V15.9c0-1.9,1.2-3.1,3.1-3.1h43.7c1.9,0,3.1,1.2,3.1,3.1v21.9
					c0,1.9-1.2,3.1-3.1,3.1s-3.1-1.2-3.1-3.1V19.1H19.1v62.4h37.5V62.8c0-1.9,1.2-3.1,3.1-3.1s3.1,1.2,3.1,3.1v21.9
					C62.8,86.5,61.5,87.8,59.7,87.8z"/>
			</g>
		</g>
		<g>
			<g>
				<path fill="#FFFFFF" d="M84.6,53.4H37.8c-1.9,0-3.1-1.2-3.1-3.1c0-1.9,1.2-3.1,3.1-3.1h46.8c1.9,0,3.1,1.2,3.1,3.1
					C87.8,52.2,86.5,53.4,84.6,53.4z"/>
			</g>
		</g>
		<g>
			<g>
				<path fill="#FFFFFF" d="M84.6,53.4c-0.9,0-1.6-0.3-2.2-0.9L70,40c-1.2-1.2-1.2-3.1,0-4.4c1.2-1.2,3.1-1.2,4.4,0l12.5,12.5
					c1.2,1.2,1.2,3.1,0,4.4C86.2,53.1,85.6,53.4,84.6,53.4z"/>
			</g>
		</g>
		<g>
			<g>
				<path fill="#FFFFFF" d="M72.1,65.9c-0.9,0-1.6-0.3-2.2-0.9c-1.2-1.2-1.2-3.1,0-4.4l12.5-12.5c1.2-1.2,3.1-1.2,4.4,0
					c1.2,1.2,1.2,3.1,0,4.4L74.3,65C73.7,65.6,73.1,65.9,72.1,65.9z"/>
			</g>
		</g>
	</g>
</g>
</svg>
